<svg xmlns="http://www.w3.org/2000/svg" viewBox="0 0 790 916" role="img" aria-label="Q-GANG monogram"><path fill="currentColor" fill-rule="evenodd" d="M 0 843 L 0 915 L 789 915 L 789 843 L 386 843 L 381 848 L 380 848 L 376 852 L 375 852 L 370 856 L 367 857 L 365 859 L 351 866 L 349 866 L 346 868 L 344 868 L 343 869 L 341 869 L 340 870 L 338 870 L 334 872 L 326 873 L 325 874 L 321 874 L 320 875 L 312 875 L 311 876 L 290 876 L 289 875 L 281 875 L 280 874 L 276 874 L 275 873 L 271 873 L 270 872 L 267 872 L 263 870 L 260 870 L 257 868 L 255 868 L 252 866 L 250 866 L 244 863 L 242 861 L 240 861 L 235 857 L 232 856 L 230 854 L 226 852 L 216 843 Z M 437 134 L 437 143 L 436 144 L 436 148 L 435 149 L 435 156 L 434 157 L 434 161 L 433 162 L 433 166 L 432 167 L 432 171 L 431 172 L 431 175 L 430 176 L 430 180 L 428 184 L 428 187 L 426 190 L 426 193 L 424 196 L 424 198 L 421 204 L 421 206 L 419 208 L 419 210 L 417 212 L 414 219 L 408 227 L 409 228 L 436 228 L 437 229 L 437 684 L 436 685 L 408 685 L 414 693 L 415 696 L 417 698 L 417 700 L 419 702 L 419 704 L 422 709 L 422 711 L 424 714 L 424 716 L 425 717 L 425 719 L 426 720 L 426 722 L 428 726 L 428 729 L 430 733 L 430 737 L 431 738 L 431 741 L 432 742 L 432 746 L 433 747 L 433 752 L 434 753 L 434 756 L 435 757 L 435 764 L 436 765 L 436 769 L 437 770 L 437 779 L 737 779 L 737 773 L 738 772 L 738 767 L 739 766 L 739 758 L 740 757 L 740 754 L 741 753 L 741 747 L 742 746 L 742 743 L 743 742 L 743 738 L 744 737 L 744 734 L 745 733 L 746 726 L 747 725 L 747 723 L 748 722 L 748 720 L 749 719 L 751 711 L 755 704 L 755 702 L 757 700 L 757 698 L 759 696 L 760 693 L 766 685 L 738 685 L 737 684 L 737 496 L 738 495 L 739 483 L 740 482 L 741 475 L 742 474 L 744 466 L 746 463 L 746 461 L 748 457 L 750 455 L 751 452 L 755 447 L 755 446 L 766 435 L 597 435 L 606 444 L 606 445 L 610 449 L 610 450 L 613 453 L 614 456 L 616 458 L 622 470 L 622 472 L 623 473 L 623 475 L 625 479 L 625 482 L 627 486 L 628 495 L 629 496 L 629 510 L 630 511 L 630 684 L 629 685 L 546 685 L 545 684 L 545 229 L 546 228 L 629 228 L 630 229 L 630 314 L 646 306 L 648 306 L 651 304 L 653 304 L 654 303 L 656 303 L 660 301 L 664 301 L 668 299 L 674 299 L 675 298 L 683 298 L 684 297 L 686 298 L 694 298 L 695 299 L 701 299 L 705 301 L 709 301 L 712 303 L 714 303 L 720 306 L 722 306 L 724 308 L 726 308 L 728 310 L 730 310 L 732 312 L 737 314 L 737 229 L 738 228 L 766 228 L 766 227 L 760 219 L 759 216 L 757 214 L 753 206 L 753 204 L 751 201 L 750 196 L 748 193 L 748 190 L 746 187 L 746 184 L 745 183 L 745 180 L 744 179 L 744 176 L 743 175 L 743 171 L 742 170 L 742 167 L 741 166 L 741 160 L 740 159 L 740 156 L 739 155 L 739 147 L 738 146 L 738 141 L 737 140 L 737 134 Z M 46 134 L 46 139 L 45 140 L 45 145 L 44 146 L 44 154 L 43 155 L 43 158 L 42 159 L 42 164 L 41 165 L 41 169 L 40 170 L 40 173 L 39 174 L 39 178 L 37 182 L 37 185 L 36 186 L 36 188 L 35 189 L 35 191 L 34 192 L 32 200 L 30 203 L 30 205 L 28 207 L 28 209 L 26 213 L 24 215 L 21 222 L 17 227 L 17 228 L 45 228 L 46 229 L 46 634 L 45 635 L 17 635 L 17 636 L 23 644 L 30 658 L 30 660 L 32 663 L 33 668 L 35 671 L 35 674 L 37 678 L 37 681 L 38 682 L 38 685 L 39 686 L 39 689 L 40 690 L 41 699 L 42 700 L 42 705 L 43 706 L 43 710 L 44 711 L 44 719 L 45 720 L 46 731 L 189 731 L 190 732 L 190 737 L 191 738 L 191 742 L 192 743 L 193 752 L 194 753 L 195 760 L 197 764 L 197 767 L 199 770 L 200 775 L 202 778 L 202 780 L 204 783 L 204 785 L 209 795 L 213 800 L 214 803 L 216 805 L 218 809 L 227 819 L 227 820 L 228 820 L 229 822 L 230 822 L 237 829 L 238 829 L 245 835 L 248 836 L 250 838 L 264 845 L 267 845 L 270 847 L 273 847 L 274 848 L 277 848 L 278 849 L 282 849 L 283 850 L 292 850 L 293 851 L 307 851 L 308 850 L 317 850 L 318 849 L 322 849 L 323 848 L 331 847 L 332 846 L 337 845 L 340 843 L 342 843 L 356 836 L 358 834 L 362 832 L 365 829 L 366 829 L 370 825 L 371 825 L 371 824 L 373 823 L 375 820 L 376 820 L 376 819 L 383 811 L 383 810 L 387 805 L 392 795 L 392 793 L 394 789 L 394 786 L 396 782 L 396 777 L 397 776 L 397 769 L 398 768 L 398 759 L 397 758 L 397 753 L 396 752 L 396 750 L 393 747 L 391 747 L 389 749 L 388 752 L 385 755 L 385 756 L 376 765 L 375 765 L 372 768 L 364 772 L 361 772 L 357 774 L 352 774 L 351 775 L 332 775 L 331 774 L 326 774 L 325 773 L 320 772 L 317 770 L 315 770 L 309 765 L 308 765 L 300 757 L 295 748 L 295 746 L 293 742 L 293 739 L 292 738 L 292 734 L 291 733 L 292 731 L 345 731 L 346 730 L 346 721 L 347 720 L 347 715 L 348 714 L 348 707 L 349 706 L 350 696 L 351 695 L 351 691 L 352 690 L 352 687 L 353 686 L 353 682 L 355 678 L 355 675 L 356 674 L 358 666 L 360 663 L 360 661 L 362 658 L 362 656 L 367 646 L 375 635 L 346 635 L 345 634 L 345 229 L 346 228 L 374 228 L 374 226 L 369 220 L 368 217 L 366 215 L 362 207 L 362 205 L 360 202 L 360 200 L 358 197 L 358 195 L 357 194 L 357 192 L 355 188 L 355 185 L 353 181 L 353 177 L 352 176 L 352 173 L 351 172 L 351 169 L 350 168 L 349 158 L 348 157 L 348 151 L 347 150 L 347 145 L 346 144 L 346 135 L 345 134 Z M 237 228 L 238 229 L 238 586 L 237 587 L 234 587 L 233 586 L 233 582 L 232 581 L 232 578 L 229 572 L 229 570 L 227 568 L 225 564 L 220 559 L 219 559 L 217 557 L 215 557 L 213 555 L 210 555 L 209 554 L 204 554 L 203 553 L 198 553 L 197 554 L 192 554 L 191 555 L 188 555 L 185 557 L 183 557 L 179 559 L 177 561 L 176 561 L 168 569 L 165 575 L 165 582 L 168 582 L 169 583 L 176 583 L 183 587 L 187 592 L 189 596 L 189 598 L 190 599 L 190 602 L 191 603 L 191 608 L 192 609 L 192 621 L 191 622 L 191 627 L 190 628 L 190 631 L 187 635 L 154 635 L 153 634 L 153 229 L 154 228 Z M 0 0 L 0 72 L 789 72 L 789 0 Z"/></svg>